<svg xmlns:dc="http://purl.org/dc/elements/1.1/" xmlns:cc="http://creativecommons.org/ns#" xmlns:rdf="http://www.w3.org/1999/02/22-rdf-syntax-ns#" xmlns:svg="http://www.w3.org/2000/svg" xmlns="http://www.w3.org/2000/svg" viewBox="0 0 280 280" fill="none"><metadata><rdf:RDF><cc:Work><dc:format>image/svg+xml</dc:format><dc:type rdf:resource="http://purl.org/dc/dcmitype/StillImage"/><dc:title>Avataaars</dc:title><dc:creator><cc:Agent><dc:title>Pablo Stanley</dc:title></cc:Agent></dc:creator><dc:source>https://avataaars.com/</dc:source><cc:license rdf:resource="https://avataaars.com/"/><dc:contributor><cc:Agent><dc:title>Florian Körner</dc:title></cc:Agent></dc:contributor></cc:Work></rdf:RDF></metadata><mask id="avatarsRadiusMask"><rect width="280" height="280" rx="0" ry="0" x="0" y="0" fill="#fff"/></mask><g mask="url(#avatarsRadiusMask)"><g transform="translate(40, 36)"><path d="M100 0C69.072 0 44 25.072 44 56v6.166c-5.675.952-10 5.888-10 11.834v14c0 6.052 4.48 11.058 10.305 11.881 2.067 19.806 14.458 36.541 31.695 44.73V163h-4c-39.764 0-72 32.236-72 72v9h200v-9c0-39.764-32.236-72-72-72h-4v-18.389c17.237-8.189 29.628-24.924 31.695-44.73C161.52 99.058 166 94.052 166 88V74c0-5.946-4.325-10.882-10-11.834V56c0-30.928-25.072-56-56-56z" fill="#D08B5B"/><path d="M76 144.611v8A55.79 55.79 0 00100 158a55.789 55.789 0 0024-5.389v-8A55.789 55.789 0 01100 150a55.79 55.79 0 01-24-5.389z" fill="#000" fill-opacity=".1"/></g><g transform="translate(8, 170)"><path d="M132.5 51.828c18.502 0 33.5-9.617 33.5-21.48 0-.353-.013-.704-.04-1.053 36.976 3.03 66.04 34 66.04 71.757V110H32v-8.948c0-38.1 29.592-69.287 67.045-71.833-.03.374-.045.75-.045 1.129 0 11.863 14.998 21.48 33.5 21.48z" fill="#E6E6E6"/><path d="M132.5 58.761c21.89 0 39.635-12.05 39.635-26.913 0-.603-.029-1.2-.086-1.793a72.056 72.056 0 00-6.089-.76c.027.349.04.7.04 1.053 0 11.863-14.998 21.48-33.5 21.48-18.502 0-33.5-9.617-33.5-21.48 0-.379.015-.755.045-1.128-2.05.139-4.077.364-6.077.672a18.594 18.594 0 00-.103 1.956c0 14.864 17.745 26.913 39.635 26.913z" fill="#000" fill-opacity=".16"/><path d="M100.778 29.122c.072-.378.145-.752.222-1.122-2.959.054-6 1-6 1l-.42.662C59.267 34.276 32 64.48 32 101.052V110h74s-10.7-51.555-5.238-80.793l.023-.085h-.007zM158 110s11-53 5-82c2.959.054 6 1 6 1l.419.662C204.733 34.276 232 64.48 232 101.052V110h-74z" fill="#FFFFB1"/><path fill-rule="evenodd" clip-rule="evenodd" d="M101 28c-6 29 5 82 5 82H90L76 74l6-9-6-6 19-30s3.041-.946 6-1zm62 0c6 29-5 82-5 82h16l14-36-6-9 6-6-19-30s-3.041-.946-6-1z" fill="#000" fill-opacity=".15"/><path d="M183.423 85.77l.871-2.24 6.262-4.697a4 4 0 014.856.043L202 84l-18.577 1.77z" fill="#E6E6E6"/></g><g transform="translate(86, 134)"><path fill-rule="evenodd" clip-rule="evenodd" d="M29 15.609C30.41 25.23 41.062 33 54 33c12.968 0 23.646-7.817 25-18.26.101-.4-.225-1.74-2.174-1.74H31.174c-1.79 0-2.304 1.24-2.174 2.609z" fill="#000" fill-opacity=".7"/><path d="M70 13H39a5 5 0 005 5h21a5 5 0 005-5z" fill="#fff"/><path d="M43 23.5l.001.067-.001.063v8.87C43 38.851 48.149 44 54.5 44S66 38.851 66 32.5v-8.87l-.001-.063L66 23.5c0-1.933-2.91-3.5-6.5-3.5-2.01 0-3.808.491-5 1.264-1.192-.773-2.99-1.264-5-1.264-3.59 0-6.5 1.567-6.5 3.5z" fill="#FF4F6D"/></g><g transform="translate(112, 122)"><path fill-rule="evenodd" clip-rule="evenodd" d="M16 8c0 4.418 5.373 8 12 8s12-3.582 12-8" fill="#000" fill-opacity=".16"/></g><g transform="translate(84, 90)"><path fill-rule="evenodd" clip-rule="evenodd" d="M16.16 22.447C18.007 18.648 22.164 16 26.998 16c4.816 0 8.961 2.63 10.817 6.407.552 1.122-.233 2.04-1.024 1.36-2.451-2.107-5.932-3.423-9.793-3.423-3.74 0-7.124 1.235-9.56 3.228-.891.728-1.818-.014-1.278-1.125zm58 0C76.007 18.648 80.164 16 84.998 16c4.816 0 8.961 2.63 10.817 6.407.552 1.122-.233 2.04-1.024 1.36-2.451-2.107-5.932-3.423-9.793-3.423-3.74 0-7.124 1.235-9.56 3.228-.891.728-1.818-.014-1.278-1.125z" fill="#000" fill-opacity=".6"/></g><g transform="translate(84, 82)"><path fill-rule="evenodd" clip-rule="evenodd" d="M22.766 1.578l.911-.402C28.92-.905 36.865-.033 41.723 2.299c.567.272.18 1.153-.402 1.108-14.919-1.151-24.963 8.146-28.375 14.44-.101.187-.407.208-.482.034-2.308-5.319 4.45-13.985 10.302-16.303zM86.993 12.07c5.761.773 14.746 5.795 13.994 11.607-.024.19-.312.25-.436.091-2.487-3.188-21.712-7.872-28.713-6.894-.641.09-1.064-.571-.627-.984 3.744-3.536 10.62-4.518 15.782-3.82z" fill="#000" fill-opacity=".6"/></g><g transform="translate(7, 0)"><path fill-rule="evenodd" clip-rule="evenodd" d="M76 98c.347 1.488 1.673 1.223 2 0-.463-1.554 3.296-28.752 13-36 3.618-2.517 23.008-4.768 42.313-4.754C152.409 57.259 171.421 59.51 175 62c9.704 7.248 13.463 34.446 13 36 .327 1.223 1.653 1.488 2 0 .719-10.298 0-63.726-57-63-57 .726-57.719 52.702-57 63z" fill="#724133"/></g></g></svg>